<?xml version="1.0" standalone="no"?>
<!DOCTYPE svg PUBLIC "-//W3C//DTD SVG 20010904//EN"
 "http://www.w3.org/TR/2001/REC-SVG-20010904/DTD/svg10.dtd">
<svg version="1.0" xmlns="http://www.w3.org/2000/svg"
 width="1000.000000pt" height="300.000000pt" viewBox="0 0 1000.000000 300.000000"
 preserveAspectRatio="xMidYMid meet">

<g transform="translate(0.000000,300.000000) scale(0.100000,-0.100000)"
stroke="none">
<path d="M1907 1952 l-58 -59 -47 8 c-26 4 -68 8 -94 8 -59 1 -71 -15 -88
-116 l-12 -71 -69 -37 c-38 -20 -77 -47 -85 -61 -15 -23 -14 -28 20 -100 20
-42 36 -85 36 -96 0 -11 -16 -49 -36 -84 -34 -61 -35 -66 -20 -89 9 -13 47
-40 85 -60 l70 -37 12 -75 c8 -49 19 -84 33 -99 21 -24 21 -24 108 -11 l87 14
58 -59 c78 -78 98 -78 176 0 l58 59 47 -8 c26 -4 68 -8 94 -8 59 -1 71 15 88
116 l12 71 69 37 c38 20 77 47 85 60 15 23 14 29 -22 105 l-37 80 37 80 c36
76 37 82 22 105 -8 13 -47 40 -85 60 -69 36 -70 38 -76 83 -9 73 -23 117 -43
135 -15 14 -27 15 -78 7 -102 -17 -109 -15 -171 45 -79 74 -100 74 -176 -3z"/>
<path d="M3336 1790 c-164 -42 -260 -171 -260 -350 1 -197 103 -319 296 -352
54 -10 76 -9 133 5 37 9 74 22 81 28 8 7 14 31 14 56 0 42 -2 45 -22 39 -75
-20 -143 -28 -185 -21 -40 6 -57 16 -99 58 -44 44 -54 61 -64 112 -15 74 -8
163 17 213 11 20 39 52 62 70 40 30 48 32 119 32 42 0 94 -5 115 -11 22 -6 40
-9 42 -7 2 2 7 27 11 55 l6 51 -38 11 c-56 16 -183 22 -228 11z"/>
<path d="M3795 1791 l-70 -6 0 -345 0 -345 65 0 65 0 3 133 3 132 59 0 c55 0
61 -2 83 -32 14 -18 30 -51 37 -73 7 -22 25 -68 41 -102 l28 -63 70 0 c76 0
84 7 56 46 -8 12 -31 59 -51 105 -20 46 -45 96 -55 111 -25 34 -24 35 12 53
72 38 103 193 57 285 -19 37 -34 50 -82 74 -52 25 -73 30 -155 31 -53 2 -127
0 -166 -4z m254 -127 c28 -23 31 -31 31 -86 0 -53 -3 -63 -29 -89 -28 -27 -34
-29 -110 -29 l-81 0 0 108 c0 60 3 112 7 115 3 4 39 7 79 7 63 0 76 -3 103
-26z"/>
<path d="M4553 1788 c-10 -14 -254 -677 -253 -691 0 -4 32 -7 72 -5 l72 3 21
70 21 70 134 0 134 0 26 -70 25 -70 73 -3 c39 -2 72 1 72 5 -1 4 -58 163 -129
353 l-128 345 -65 3 c-44 2 -68 -1 -75 -10z m167 -440 c0 -5 -43 -8 -95 -8
-81 0 -95 2 -95 16 0 19 76 269 87 287 6 10 103 -269 103 -295z"/>
<path d="M6875 1791 l-80 -6 -3 -339 c-1 -192 2 -344 7 -349 5 -5 82 -9 172
-10 162 -2 165 -2 227 27 55 25 67 36 88 78 55 108 33 199 -58 248 l-48 26 30
18 c38 22 60 63 66 124 7 68 -24 119 -97 155 -62 31 -157 40 -304 28z m239
-122 c22 -18 26 -28 26 -74 0 -46 -4 -56 -26 -74 -22 -17 -41 -21 -105 -21
l-79 0 0 95 0 95 79 0 c64 0 83 -4 105 -21z m25 -295 c28 -23 31 -31 31 -83 0
-49 -4 -61 -26 -82 -23 -22 -34 -24 -117 -24 l-92 0 -3 108 -3 107 90 0 c82 0
92 -2 120 -26z"/>
<path d="M7865 1791 l-80 -6 0 -345 0 -345 120 -8 c229 -16 344 33 416 175 62
123 61 274 -4 393 -30 55 -39 63 -108 98 -69 35 -84 39 -170 42 -52 1 -130 0
-174 -4z m281 -142 c54 -51 64 -83 64 -206 0 -126 -17 -174 -74 -218 -37 -28
-128 -44 -180 -31 l-26 6 0 239 c0 131 3 241 8 245 4 5 44 6 90 4 78 -4 84 -6
118 -39z"/>
<path d="M5045 1778 c-3 -7 -4 -164 -3 -348 l3 -335 70 0 70 0 3 142 3 142 97
3 97 3 0 50 0 50 -97 3 -98 3 0 94 0 94 138 3 137 3 0 50 0 50 -208 3 c-161 2
-209 0 -212 -10z"/>
<path d="M5504 1776 c-3 -8 -4 -31 -2 -52 l3 -39 97 -3 98 -3 2 -292 3 -292
70 0 70 0 3 292 2 292 98 3 97 3 0 50 0 50 -268 3 c-223 2 -268 0 -273 -12z"/>
<path d="M7455 1778 c-3 -7 -4 -164 -3 -348 l3 -335 70 0 70 0 0 345 0 345
-68 3 c-48 2 -69 -1 -72 -10z"/>
<path d="M6194 1486 c-3 -8 -4 -31 -2 -52 l3 -39 190 0 190 0 0 50 0 50 -188
3 c-154 2 -188 0 -193 -12z"/>
</g>
</svg>
